<svg xmlns="http://www.w3.org/2000/svg" viewBox="0 0 508.43 480.23"><defs><style>.cls-1{isolation:isolate;}.cls-2{fill:#ebffff;}.cls-3{fill:#d3e6ff;}.cls-4{fill:#18106f;}.cls-5{fill:#c2d2ff;}.cls-6{fill:#0080ff;}.cls-51,.cls-7{fill:#5421a0;}.cls-8{fill:#ffe622;}.cls-9{fill:#3ff8ff;}.cls-10{fill:#fffa00;opacity:0.56;}.cls-11{fill:#00e5eb;opacity:0.57;}.cls-12{fill:#ff395f;}.cls-13{fill:#005be4;}.cls-14,.cls-23{fill:#d7e9ff;}.cls-15{fill:#00134b;}.cls-16{fill:#001329;}.cls-17{fill:#002d71;}.cls-18{fill:#f6fcff;}.cls-19{fill:#ffd5b6;}.cls-20{fill:#0cefff;}.cls-21{fill:#181f47;}.cls-22{fill:#ffa28e;}.cls-23{opacity:0.41;}.cls-23,.cls-33,.cls-46,.cls-48,.cls-51,.cls-57,.cls-76{mix-blend-mode:multiply;}.cls-24{fill:#8042b8;}.cls-24,.cls-25,.cls-26,.cls-27,.cls-28,.cls-31{opacity:0.75;}.cls-25,.cls-32{fill:#00e9ff;}.cls-26,.cls-27,.cls-53,.cls-54,.cls-55,.cls-56,.cls-73,.cls-74{fill:none;}.cls-26,.cls-27{stroke:#8042b8;stroke-width:0.96px;}.cls-26,.cls-53,.cls-54,.cls-55,.cls-56,.cls-74{stroke-linecap:round;stroke-linejoin:round;}.cls-27,.cls-73{stroke-miterlimit:10;}.cls-28{fill:#75fcff;}.cls-29,.cls-48,.cls-50{opacity:0.2;}.cls-30,.cls-50{fill:#00d6ff;}.cls-33,.cls-51{opacity:0.81;}.cls-34,.cls-52{opacity:0.3;}.cls-35,.cls-52{fill:#0042c0;}.cls-36{fill:#ff3d40;}.cls-37{fill:#c32717;}.cls-38{fill:#ffcd00;}.cls-39{fill:#ffa600;}.cls-40{fill:#40f988;}.cls-41{fill:#11ab6b;}.cls-42{fill:#ffd600;}.cls-43{fill:#00da8f;}.cls-44{fill:#00fcff;}.cls-45{fill:#ff4f92;}.cls-46,.cls-76{fill:#008dca;}.cls-46{opacity:0.21;}.cls-47{fill:#cd6dff;}.cls-48,.cls-57{fill:#ffb222;}.cls-49{fill:#ffb300;}.cls-53{stroke:#00da8f;}.cls-53,.cls-54,.cls-55,.cls-56{stroke-width:1.93px;}.cls-54{stroke:#00fcff;}.cls-55{stroke:#ff4f92;}.cls-56{stroke:#ffd600;}.cls-57{opacity:0.53;}.cls-58{fill:#ffd222;}.cls-59{fill:#d0d2f2;}.cls-60{fill:#bdc5f2;}.cls-61{fill:#e1efff;}.cls-62{fill:#230d45;}.cls-63{fill:#cbd3e8;}.cls-64{fill:#00c4ff;}.cls-65{fill:#ffab00;}.cls-66{fill:#f90;}.cls-67{fill:#010e66;}.cls-68{fill:#ffbd00;}.cls-69{fill:#001d4f;}.cls-70{fill:#6a99ff;}.cls-71{fill:#fff;}.cls-72{fill:#182159;}.cls-73,.cls-74{stroke:#00308a;stroke-width:0.48px;}.cls-75{fill:#dde0ff;}.cls-76{opacity:0.09;}.cls-77{fill:#bbeaff;}.cls-78{fill:#c8f1ff;}.cls-79{fill:#dafaff;}.cls-80{fill:#addfff;}.cls-81{fill:#fc0;}.cls-82{fill:#00fbed;}.cls-83{fill:#0ee;}.cls-84{fill:#ed2c51;}.cls-85{fill:#c71e44;}</style></defs><title>banner_img_right</title><g class="cls-1"><g id="Layer_2" data-name="Layer 2"><g id="Block_1" data-name="Block 1"><g id="Img_2" data-name="Img 2"><path class="cls-2" d="M104.12,286.62,306.34,405.21a15.52,15.52,0,0,0,15.38.19L466.19,324a5.48,5.48,0,0,0,2.84-4.81v-1.67l-216.31-124L104.18,277C101.09,278.76,101.05,284.82,104.12,286.62Z"/><path class="cls-3" d="M104.45,284.81,306,402.19a15.32,15.32,0,0,0,15.3.06L469,317.56,253,191.72,104.48,276.84A4.6,4.6,0,0,0,104.45,284.81Z"/><polygon class="cls-2" points="148.63 263.83 339.35 374.24 441.13 316.23 250.42 205.82 148.63 263.83"/><polygon class="cls-4" points="413.27 304.52 398.9 312.82 414.29 321.79 428.65 313.49 413.27 304.52"/><polygon class="cls-4" points="394.26 310.17 408.63 301.87 393.25 292.9 378.88 301.2 394.26 310.17"/><polygon class="cls-4" points="374.24 298.56 388.61 290.25 373.23 281.29 358.86 289.59 374.24 298.56"/><polygon class="cls-4" points="354.22 286.94 368.59 278.64 353.2 269.67 338.83 277.97 354.22 286.94"/><polygon class="cls-4" points="334.19 275.32 348.56 267.02 333.18 258.05 318.81 266.35 334.19 275.32"/><polygon class="cls-4" points="314.17 263.7 328.54 255.4 313.16 246.43 298.79 254.73 314.17 263.7"/><polygon class="cls-4" points="294.15 252.08 308.52 243.78 293.13 234.81 278.76 243.11 294.15 252.08"/><polygon class="cls-4" points="274.13 240.46 288.5 232.16 273.11 223.2 258.74 231.5 274.13 240.46"/><polygon class="cls-4" points="268.48 220.55 253.09 211.58 238.72 219.88 254.1 228.85 268.48 220.55"/><polygon class="cls-4" points="382.19 322.7 397.58 331.66 411.95 323.37 396.56 314.4 382.19 322.7"/><polygon class="cls-4" points="391.92 311.75 376.54 302.78 362.17 311.08 377.55 320.05 391.92 311.75"/><polygon class="cls-4" points="371.9 300.13 356.52 291.16 342.15 299.46 357.53 308.43 371.9 300.13"/><polygon class="cls-4" points="322.12 287.84 337.51 296.81 351.88 288.51 336.49 279.54 322.12 287.84"/><polygon class="cls-4" points="302.1 276.22 317.49 285.19 331.86 276.89 316.47 267.92 302.1 276.22"/><polygon class="cls-4" points="282.08 264.61 297.46 273.57 311.83 265.27 296.45 256.31 282.08 264.61"/><polygon class="cls-4" points="262.06 252.99 277.44 261.96 291.81 253.66 276.43 244.69 262.06 252.99"/><polygon class="cls-4" points="242.03 241.37 257.42 250.34 271.79 242.04 256.4 233.07 242.03 241.37"/><polygon class="cls-4" points="251.77 230.42 236.38 221.45 222.01 229.75 237.4 238.72 251.77 230.42"/><polygon class="cls-4" points="365.48 332.57 380.87 341.54 395.24 333.24 379.85 324.27 365.48 332.57"/><polygon class="cls-4" points="375.21 321.62 359.83 312.65 345.46 320.95 360.84 329.92 375.21 321.62"/><polygon class="cls-4" points="355.19 310 339.81 301.03 325.44 309.33 340.82 318.3 355.19 310"/><polygon class="cls-4" points="335.17 298.38 319.79 289.42 305.41 297.71 320.8 306.68 335.17 298.38"/><polygon class="cls-4" points="315.15 286.77 299.76 277.8 285.39 286.1 300.78 295.07 315.15 286.77"/><polygon class="cls-4" points="295.12 275.15 279.74 266.18 265.37 274.48 280.75 283.45 295.12 275.15"/><polygon class="cls-4" points="245.35 262.86 260.73 271.83 275.1 263.53 259.72 254.56 245.35 262.86"/><polygon class="cls-4" points="225.32 251.24 240.71 260.21 255.08 251.91 239.69 242.94 225.32 251.24"/><polygon class="cls-4" points="235.06 240.29 219.67 231.33 205.3 239.63 220.69 248.59 235.06 240.29"/><polygon class="cls-4" points="348.77 342.44 364.16 351.41 378.53 343.11 363.14 334.14 348.77 342.44"/><polygon class="cls-4" points="358.5 331.49 343.12 322.53 328.75 330.82 344.13 339.79 358.5 331.49"/><polygon class="cls-4" points="338.48 319.88 323.1 310.91 308.73 319.21 324.11 328.18 338.48 319.88"/><polygon class="cls-4" points="318.46 308.26 303.07 299.29 288.7 307.59 304.09 316.56 318.46 308.26"/><polygon class="cls-4" points="298.44 296.64 283.05 287.67 268.68 295.97 284.07 304.94 298.44 296.64"/><polygon class="cls-4" points="278.42 285.02 263.03 276.05 248.66 284.35 264.05 293.32 278.42 285.02"/><polygon class="cls-4" points="258.39 273.4 243.01 264.44 228.64 272.74 244.02 281.7 258.39 273.4"/><polygon class="cls-4" points="208.62 261.12 224 270.08 238.37 261.79 222.99 252.82 208.62 261.12"/><polygon class="cls-4" points="218.35 250.17 202.96 241.2 188.59 249.5 203.98 258.47 218.35 250.17"/><polygon class="cls-4" points="332.06 352.32 347.45 361.29 361.82 352.99 346.43 344.02 332.06 352.32"/><polygon class="cls-4" points="326.41 332.4 312.04 340.7 327.43 349.67 341.8 341.37 326.41 332.4"/><polygon class="cls-4" points="306.39 320.78 292.02 329.08 307.4 338.05 321.77 329.75 306.39 320.78"/><polygon class="cls-4" points="281.71 306.52 281.73 306.51 266.34 297.55 266.29 297.58 261.68 294.91 261.71 294.89 246.32 285.93 246.25 285.97 241.65 283.3 241.68 283.28 226.3 274.31 226.21 274.36 226.21 274.36 211.84 282.66 287.38 326.43 301.75 318.13 281.71 306.52"/><polygon class="cls-4" points="206.28 262.69 191.91 270.99 207.29 279.96 221.66 271.66 206.28 262.69"/><polygon class="cls-4" points="186.25 251.07 171.88 259.37 187.27 268.34 201.64 260.04 186.25 251.07"/><path class="cls-2" d="M183,324.7l44.82,26.2L254,336a1.46,1.46,0,0,0,0-2.52l-39.25-22.94a6.81,6.81,0,0,0-6.82,0Z"/><polygon class="cls-3" points="235.58 344.49 227.57 349.06 185.51 324.47 193.53 319.9 235.58 344.49"/><path class="cls-2" d="M265.14,21.6l199,115.89a15,15,0,0,1,7.44,12.94L469,317.56,255.49,189.76V27.15A6.42,6.42,0,0,1,265.14,21.6Z"/><path class="cls-5" d="M262.56,23.58l197,114.67A19.15,19.15,0,0,1,469,154.81V317.56L252.91,191.73V29.12A6.42,6.42,0,0,1,262.56,23.58Z"/><path class="cls-4" d="M469,297.3,252.91,171.47V26.56a5,5,0,0,1,7.44-4.27L462.82,140.18A12.49,12.49,0,0,1,469,151Z"/><polygon class="cls-6" points="458.28 277.96 263.77 165.35 263.77 39.45 458.28 152.06 458.28 277.96"/><polygon class="cls-7" points="452.87 235.73 331.56 165.42 331.56 88.2 452.87 158.51 452.87 235.73"/><polygon class="cls-8" points="446.85 167.83 377.05 127.42 377.05 123.11 446.85 163.52 446.85 167.83"/><polygon class="cls-8" points="446.85 179.1 377.05 138.69 377.05 134.38 446.85 174.79 446.85 179.1"/><polygon class="cls-9" points="446.85 192.53 377.05 152.11 377.05 147.1 446.85 187.51 446.85 192.53"/><polygon class="cls-9" points="446.85 204.13 377.05 163.72 377.05 158.71 446.85 199.12 446.85 204.13"/><polygon class="cls-9" points="366.96 155.42 356.34 149.11 356.34 133.72 366.96 140.02 366.96 155.42"/><polygon class="cls-9" points="348.47 144.57 337.85 138.26 337.85 122.87 348.47 129.17 348.47 144.57"/><polygon class="cls-9" points="348.47 167.59 337.85 161.28 337.85 145.89 348.47 152.19 348.47 167.59"/><polygon class="cls-10" points="445.09 262.7 366.96 216.49 366.96 168.85 445.09 215.06 445.09 262.7"/><polygon class="cls-11" points="377.05 196.92 353.92 183.24 353.92 169.14 377.05 182.82 377.05 196.92"/><polygon class="cls-7" points="301.85 117.54 271.42 99.49 271.42 55.39 301.85 73.45 301.85 117.54"/><polygon class="cls-9" points="312.34 142.86 288.11 128.48 288.11 93.36 312.34 107.74 312.34 142.86"/><polygon class="cls-12" points="306.04 129.99 294.4 123.09 294.4 106.23 306.04 113.13 306.04 129.99"/><polygon class="cls-9" points="320.77 181.42 311.84 176.12 311.84 163.19 320.77 168.48 320.77 181.42"/><polygon class="cls-9" points="339.63 192.15 330.71 186.85 330.71 173.91 339.63 179.21 339.63 192.15"/><polygon class="cls-12" points="300.47 78.19 284.33 68.74 284.33 66.94 300.47 76.38 300.47 78.19"/><polygon class="cls-9" points="300.47 81.72 284.33 72.28 284.33 70.47 300.47 79.92 300.47 81.72"/><polygon class="cls-9" points="292.4 83.81 276.27 74.37 276.27 72.56 292.4 82.01 292.4 83.81"/><polygon class="cls-8" points="292.4 89.44 276.27 79.99 276.27 78.19 292.4 87.63 292.4 89.44"/><polygon class="cls-9" points="282.82 89.74 276.27 85.92 276.27 84.11 282.82 87.93 282.82 89.74"/><polygon class="cls-8" points="282.82 95.06 276.27 91.24 276.27 89.44 282.82 93.26 282.82 95.06"/><polygon class="cls-9" points="282.82 100.39 276.27 96.56 276.27 94.76 282.82 98.58 282.82 100.39"/><polygon class="cls-9" points="298.94 87.04 296.51 85.62 296.51 83.81 298.94 85.24 298.94 87.04"/><polygon class="cls-12" points="298.94 89.82 296.51 88.39 296.51 86.59 298.94 88.01 298.94 89.82"/><polygon class="cls-9" points="298.94 92.59 296.51 91.16 296.51 89.36 298.94 90.79 298.94 92.59"/><polygon class="cls-12" points="298.94 95.36 296.51 93.94 296.51 92.13 298.94 93.56 298.94 95.36"/><polygon class="cls-12" points="298.94 98.14 296.51 96.71 296.51 94.91 298.94 96.33 298.94 98.14"/><polygon class="cls-13" points="441.13 233.07 394.93 206.02 394.93 200.85 441.13 227.9 441.13 233.07"/><polygon class="cls-13" points="441.13 242.2 394.93 215.16 394.93 209.99 441.13 237.03 441.13 242.2"/><polygon class="cls-13" points="441.13 251.34 374.93 212.57 374.93 207.4 441.13 246.17 441.13 251.34"/><polygon class="cls-14" points="386.22 57.95 381.67 86.47 389.04 86.47 387.81 57.08 386.22 57.95"/><path class="cls-15" d="M398.31,78.48l-44.15,1.7-25.31,39.45,2,1.24s19.65-9.19,29.55-29.35c18.1,2.27,47-2.87,47-2.87l.94-7.4"/><polygon class="cls-16" points="330.88 120.87 328.85 125.19 315.19 115.45 328.85 119.63 330.88 120.87"/><path class="cls-17" d="M356.34,130.18l-3.27-1,7.59-44.89,24.28.2,26.14,4.08s1.59,5.54-6.8,11.12c-7,4.65-15.24,1.79-15.24,1.79l-18.35-6.91C371.58,100,369.21,112.1,356.34,130.18Z"/><path class="cls-15" d="M385.84,84.58s6.38,13.36,23.77,9.66a11.84,11.84,0,0,0,1.47-5.68Z"/><polygon class="cls-16" points="353.06 129.17 336.25 132.7 356.08 134.69 356.34 130.18 353.06 129.17"/><path class="cls-18" d="M388.75,43s4.66,4.87,5.61,14.4c0,0-25.5,5.63-47.35-18.06l3.46-4.7S372.6,48.93,388.75,43Z"/><path class="cls-14" d="M382.87,57.74l5-14.16L388,58A50.5,50.5,0,0,1,382.87,57.74Z"/><path class="cls-19" d="M348,33.39l-5.11-3.71H330.46s-.61,2.55,8.11,2.32L338,34.65,340.78,38l4.81-.36,1.14.89Z"/><polygon class="cls-20" points="344.41 37.47 347.96 32.87 350.46 34.61 347.01 39.31 344.41 37.47"/><path class="cls-19" d="M379.34,18.64a40.14,40.14,0,0,0-1.74,15.18s3.38,1.79,9.4.48l1.69,7.79s5.19-1.26,6.14-2.64c.44-.64.11-3.1.11-3.1l-1.18-5.41L392,31l.64-2.51a4,4,0,0,0,2.66-3.34c.29-2.65-2.4-1.43-3-1L391.64,26s-.5-3.58,1.43-4.94l-1.49-3.3A21.28,21.28,0,0,1,379.34,18.64Z"/><path class="cls-21" d="M393.07,21l-.95-2.1c2-2.76-3.83-7-3.45-10.47,9.49,1.93,10.52,8.56,10.52,8.56,4.18,9.52-3.74,13.26-3.74,13.26a3.87,3.87,0,0,1-1.29,2.49l-.4-1.81L392,31l.64-2.51c2-1,3.25-3.56,2.15-4.53s-2.52.21-2.52.21L391.64,26C391,22.1,393.07,21,393.07,21Z"/><path class="cls-21" d="M384.65,20.43c.56,1.39,3,1.73,5.39.76s3.94-2.87,3.38-4.26-3-1.73-5.38-.76S384.1,19,384.65,20.43Z"/><path class="cls-21" d="M390.27,21.45c.26.64,1.37.79,2.48.35s1.82-1.32,1.56-2-1.36-.8-2.48-.35S390,20.81,390.27,21.45Z"/><path class="cls-21" d="M380,18.8c.32,1.19,2.52,1.63,4.91,1s4.07-2.13,3.75-3.32-2.52-1.62-4.91-1S379.65,17.62,380,18.8Z"/><path class="cls-21" d="M375.88,18.17c.32,1.19,2.52,1.63,4.91,1s4.07-2.13,3.75-3.32-2.52-1.63-4.91-1S375.56,17,375.88,18.17Z"/><path class="cls-21" d="M375.77,10c-.73,1.92,1.81,4.67,5.67,6.15s14.16,3.52,14.89,1.6.35-7.52-10.29-10C382,6.75,376.5,8,375.77,10Z"/><polygon class="cls-22" points="381.81 22.5 382.78 26.99 380.66 27.45 381.81 22.5"/><path class="cls-22" d="M382.31,31.62a3.15,3.15,0,0,0,3.17-3.31.61.61,0,0,0-.62-.56.59.59,0,0,0-.56.61,2,2,0,0,1-3.83.84.57.57,0,0,0-.76-.33.58.58,0,0,0-.32.77A3.14,3.14,0,0,0,382.31,31.62Z"/><path class="cls-20" d="M411.08,88.56s1.53,3.79-8.95,2.84c-17.75-1.6-16.77-12.92-16.77-12.92l1.74-33.66a4.32,4.32,0,0,1,1.59-2.73c1.82-1.66,5.67-2,6.25-5.74,5.21-.26,10.29,8.13,13.09,17.69C411.15,64.68,411.08,88.56,411.08,88.56Z"/><path class="cls-23" d="M388.6,82.53c9.93-.24,15.68-2.18,15.68-2.18S404,56.47,403,50.85s-3.26-11-9.14-9.42S390,51.56,390,51.56l4.62,19.6-6.83.83Z"/><path class="cls-18" d="M388.44,51.45s-1.4-8.76,5-9.8,8.24,4.61,8.61,10.47-2,28.71-2,28.71-16.78,2.84-40.4-6.36l.31-3.91,31.26.36Z"/><path class="cls-19" d="M357.55,70.67l-7.09-.84-5.83,2.46-.82,7.21s1.65.47,2.24-3.8l1.63-.35s3.07,1.31,5.39.68a36.12,36.12,0,0,1,4.66-.92Z"/><rect class="cls-20" x="357.64" y="70.61" width="3.25" height="4.44" transform="translate(721.07 131.7) rotate(177.78)"/><path class="cls-20" d="M328.32,64.62a2,2,0,0,1,1,.87L339,82.15l-1.34.61-10.41-18A1.32,1.32,0,0,1,328.32,64.62Z"/><path class="cls-2" d="M327.61,64.22a2.18,2.18,0,0,1,1.14,1l10.64,18.41-1.48.69L326.4,64.35A1.41,1.41,0,0,1,327.61,64.22Z"/><rect class="cls-2" x="337.48" y="79.64" width="26.5" height="1.83" transform="translate(-9.11 76.37) rotate(-12.27)"/><polygon class="cls-24" points="315.19 216.68 245.88 175.54 245.88 75.1 315.19 116.23 315.19 216.68"/><polygon class="cls-25" points="286.64 203.57 230.15 170.06 230.15 88.2 286.64 121.72 286.64 203.57"/><polyline class="cls-26" points="224.54 174.85 224.54 76.75 292.25 116.92"/><polygon class="cls-24" points="243.77 183.57 206.88 161.67 206.88 108.21 243.77 130.1 243.77 183.57"/><polygon class="cls-27" points="248.7 193.64 201.94 165.89 201.94 98.14 248.7 125.88 248.7 193.64"/><polygon class="cls-25" points="216.41 168.38 194.38 155.31 194.38 123.39 216.41 136.46 216.41 168.38"/><polygon class="cls-28" points="208.66 157.09 197.7 150.58 197.7 134.69 208.66 141.2 208.66 157.09"/><polygon class="cls-24" points="201.2 153.05 194.19 148.89 194.19 138.73 201.2 142.89 201.2 153.05"/><polygon class="cls-27" points="203.18 157.09 192.21 150.58 192.21 134.69 203.18 141.2 203.18 157.09"/><polygon class="cls-24" points="196.99 151.61 191.39 148.28 191.39 140.17 196.99 143.49 196.99 151.61"/><polygon class="cls-28" points="195.49 148.53 192.9 147 192.9 143.24 195.49 144.78 195.49 148.53"/><g class="cls-29"><path class="cls-30" d="M325.09,43.22l-46.48-.06a3.86,3.86,0,0,1-3.87-3.88V3.87A3.88,3.88,0,0,1,278.62,0L325.1.06A3.88,3.88,0,0,1,329,3.94V39.35A3.88,3.88,0,0,1,325.09,43.22Z"/></g><g class="cls-31"><path class="cls-32" d="M326.23.06,277.49,0a2.75,2.75,0,0,0-2.75,2.74V10.1l54.24.07V2.8A2.74,2.74,0,0,0,326.23.06Z"/></g><g class="cls-33"><path class="cls-7" d="M322.85,39.92l-41-.05a3.2,3.2,0,0,1-3.2-3.2V16.34a3.21,3.21,0,0,1,3.2-3.19l41,0A3.18,3.18,0,0,1,326,16.4l0,20.32A3.21,3.21,0,0,1,322.85,39.92Z"/></g><g class="cls-34"><path class="cls-35" d="M282.88,5.06a2.73,2.73,0,1,1-2.73-2.73A2.73,2.73,0,0,1,282.88,5.06Z"/></g><g class="cls-31"><path class="cls-32" d="M282.27,5.06a2.12,2.12,0,1,1-2.12-2.12A2.11,2.11,0,0,1,282.27,5.06Z"/></g><path class="cls-36" d="M281.87,5.06a1.72,1.72,0,1,1-1.72-1.72A1.71,1.71,0,0,1,281.87,5.06Z"/><path class="cls-37" d="M281.18,5.06a1,1,0,1,1-1-1A1,1,0,0,1,281.18,5.06Z"/><g class="cls-34"><path class="cls-35" d="M290.79,5.07a2.73,2.73,0,1,1-2.72-2.74A2.72,2.72,0,0,1,290.79,5.07Z"/></g><g class="cls-31"><path class="cls-32" d="M290.18,5.07a2.12,2.12,0,1,1-2.11-2.13A2.12,2.12,0,0,1,290.18,5.07Z"/></g><path class="cls-38" d="M289.79,5.06a1.73,1.73,0,1,1-1.72-1.73A1.72,1.72,0,0,1,289.79,5.06Z"/><path class="cls-39" d="M289.11,5.06a1,1,0,1,1-1.05-1A1,1,0,0,1,289.11,5.06Z"/><g class="cls-34"><path class="cls-35" d="M298.71,5.07A2.74,2.74,0,1,1,296,2.34,2.74,2.74,0,0,1,298.71,5.07Z"/></g><g class="cls-31"><path class="cls-32" d="M298.09,5.07A2.12,2.12,0,1,1,296,3,2.12,2.12,0,0,1,298.09,5.07Z"/></g><path class="cls-40" d="M297.71,5.07A1.73,1.73,0,1,1,296,3.34,1.74,1.74,0,0,1,297.71,5.07Z"/><path class="cls-41" d="M297,5.07a1,1,0,1,1-1-1A1,1,0,0,1,297,5.07Z"/><path class="cls-42" d="M283.32,20.49a.36.36,0,0,1-.27-.12l-2.12-2.12a.36.36,0,0,1,0-.54l2.12-2.12a.38.38,0,0,1,.54.54L281.74,18l1.85,1.85a.38.38,0,0,1,0,.54A.39.39,0,0,1,283.32,20.49Z"/><path class="cls-42" d="M288.66,20.49a.39.39,0,0,1-.27-.11.38.38,0,0,1,0-.54L290.24,18l-1.85-1.86a.38.38,0,1,1,.54-.54l2.12,2.13a.36.36,0,0,1,0,.54l-2.12,2.12A.4.4,0,0,1,288.66,20.49Z"/><path class="cls-42" d="M285.09,20.85l-.13,0a.38.38,0,0,1-.23-.49l1.69-4.61a.38.38,0,0,1,.72.26l-1.69,4.61A.38.38,0,0,1,285.09,20.85Z"/><path class="cls-42" d="M293,21.3h0a.79.79,0,0,1,0-1.58.8.8,0,0,1,.79.79h0A.79.79,0,0,1,293,21.3Zm0-1.19a.41.41,0,1,0,0,.81h0a.42.42,0,0,0,.41-.41A.41.41,0,0,0,293,20.11Zm.6.4Z"/><path class="cls-42" d="M295.52,21.31h0a.8.8,0,0,1-.56-.24A.78.78,0,0,1,295,20a.79.79,0,0,1,.56-.23h0a.79.79,0,0,1,.56,1.35A.83.83,0,0,1,295.52,21.31Zm0-1.2a.41.41,0,0,0-.41.41.38.38,0,0,0,.12.28.4.4,0,0,0,.29.12h0a.4.4,0,0,0,.29-.12.39.39,0,0,0,.11-.28.4.4,0,0,0-.4-.41Z"/><path class="cls-42" d="M298,21.31h0a.79.79,0,1,1,.79-.79h0A.79.79,0,0,1,298,21.31Zm0-1.2a.41.41,0,0,0-.41.41.41.41,0,0,0,.41.41h0a.43.43,0,0,0,.41-.41A.41.41,0,0,0,298,20.11Zm.6.41Z"/><path class="cls-43" d="M317.32,25.24h0l-35.07,0a.38.38,0,1,1,0-.76h0l35.07,0a.38.38,0,1,1,0,.76Z"/><path class="cls-43" d="M322.8,25.25h-1.61a.38.38,0,1,1,0-.76h1.61a.39.39,0,0,1,.38.39A.38.38,0,0,1,322.8,25.25Z"/><path class="cls-44" d="M306.92,30.26h0l-24.67,0a.39.39,0,0,1,0-.77h0l24.67,0a.39.39,0,0,1,.39.38A.4.4,0,0,1,306.92,30.26Z"/><path class="cls-44" d="M314.38,30.26h-1.51a.38.38,0,1,1,0-.76h1.51a.38.38,0,0,1,0,.76Z"/><path class="cls-44" d="M306.92,33.14H303a.38.38,0,1,1,0-.76h3.92a.38.38,0,0,1,0,.76Z"/><path class="cls-44" d="M299.89,33.14H296a.38.38,0,1,1,0-.76h3.91a.39.39,0,0,1,0,.77Z"/><path class="cls-44" d="M292.1,33.13h-3.92a.38.38,0,0,1,0-.76h3.92a.38.38,0,0,1,.38.38A.39.39,0,0,1,292.1,33.13Z"/><path class="cls-45" d="M320,36.67h0l-31.79,0a.38.38,0,1,1,0-.76h0l31.79,0a.39.39,0,0,1,.39.39A.38.38,0,0,1,320,36.67Z"/><path class="cls-44" d="M283.66,33.12h-1.41a.39.39,0,1,1,0-.77h1.41a.39.39,0,0,1,.38.39A.38.38,0,0,1,283.66,33.12Z"/><path class="cls-44" d="M283.66,36.63h-1.42a.38.38,0,1,1,0-.76h1.42a.38.38,0,0,1,0,.76Z"/><path class="cls-46" d="M256.86,446.83c0,1.78-16.43,3.24-36.7,3.24s-36.71-1.46-36.71-3.24,16.43-3.24,36.71-3.24S256.86,445,256.86,446.83Z"/><path class="cls-46" d="M508.43,446.85c0,2.12-16.44,3.84-36.71,3.84S435,449,435,446.85,451.45,443,471.72,443,508.43,444.72,508.43,446.85Z"/><path class="cls-46" d="M284.71,448.23c0,1-4.08,1.84-9.12,1.84s-9.13-.83-9.13-1.84,4.09-1.83,9.13-1.83S284.71,447.22,284.71,448.23Z"/><polygon class="cls-16" points="460.64 441.2 460.64 444.8 445.73 444.8 455.83 441.2 460.64 441.2"/><polygon class="cls-16" points="496.24 441.2 496.24 444.8 487.23 448.92 483.18 448.92 490.73 441.2 496.24 441.2"/><path class="cls-17" d="M455.84,345.16v96h4.8s8-22.41,6.72-44.5l5.44-33.3,17.93,77.8h5.45s4.73-28.72-1.92-46.1l-2.57-49.94Z"/><path class="cls-15" d="M455.84,345.16s8.75,6.84,36.16,6l-.31-6L471,341.33"/><polygon class="cls-15" points="472.8 363.4 466.67 351.17 467.36 396.7 472.8 363.4"/><path class="cls-21" d="M467.33,256.18c.41-.69-2-1-1.75-1.69,6.74-1.3,14.19.1,14.64,5.58,0,0,9.35,8.16-1.86,18.85v1.43l-9.28-5.53L461.6,264.4a8.84,8.84,0,0,1-2-.35A23.74,23.74,0,0,0,467.33,256.18Z"/><path class="cls-22" d="M461,268.76a8.13,8.13,0,0,0-3,5.84h5.15Z"/><path class="cls-21" d="M461.51,265.21s-7-1.23-5.07-8.66l2.37,1.33s-2.9-3.46,1.85-9.61l6.8,6.88,1.44,6.94Z"/><polyline class="cls-18" points="459.98 276.27 460.37 278.6 464.06 278.5 466.51 275.22 464.83 273.87"/><path class="cls-19" d="M478.36,280.18s-5.64-3.15-5.46-7.54c0,0,4-.83,3.34-3.76-.57-2.43-3.62-1.61-4.6.48v2.79s-1.57,0-1.85-5.39L468,264.4H461.6A25.63,25.63,0,0,0,460,276.28h4.31s-.93,1.69-3.92,2.32a19.89,19.89,0,0,0,1.23,3.79h6.33l0,5.48s-.58,3.76,2.42,4.52c5.73,1.45,8-4.83,8-4.83v-7.38Z"/><path class="cls-7" d="M468.9,294.21c-.26-3.3-3.84-8.4-11.43-.4-9.57,10.08-21.59,22.9-45.82,17.16l-2.55,4.86s25.86,15.49,51.61-6.61C463.94,306.44,469.42,300.7,468.9,294.21Z"/><path class="cls-19" d="M412.11,312.1a15.54,15.54,0,0,0-2.1-2.81s-3.27-3.37-3.81-3.86a1.1,1.1,0,0,0-.42,1.67,14.52,14.52,0,0,0,1.79,2.49,10.31,10.31,0,0,1-3-1.23c-1.05-.77-3.17-2.22-4-2.07s-.43.93-.43.93l3.95,2.71c.61.43.26.59.26.59l-5.06-1.9c-.77-.29-1.23.05-1.27.84,0,0,2.29.88,3.64,1.55.47.23,2.22.71,1.91,1.26,0,0-3.84-1-4.46-1.23s-1.14.2-.95.91l5.09,1.76s.33.19.12.38a12.3,12.3,0,0,1-3,.12c-.27-.07-1.13-.22-1.17.53,0,0,0,.26.82.41s4.59,1,4.59,1a11.43,11.43,0,0,0,5.3.28c2.9-.56,3.27-1.73,2.15-.39v-1.65Z"/><path class="cls-47" d="M489.14,301c-.25-3.41-.59-6.39-4.71-10.72-1.26-1.32-5.77-2.8-6.08-2.8v.06c0,.08-3.15,5.65-8,4.38-3-.79-2.42-4.08-2.42-4.08v-.08h-.33c-4.19.4-7.95,7.19-9.23,15.59-1,17-2.51,41.77-2.51,41.77,16.21,5.33,35.85,0,35.85,0l.66.59Z"/><path class="cls-48" d="M456,337.2c16.18-9.11,17.88-23.5,19.32-35.16,1.05-8.52,5.77-9.55,8.67-8.31a11.76,11.76,0,0,1,2.93,6.18l-1.53.06c-.25,1.56,1.88,4.11,1.7,5.17-4.5,25.47-22,37.18-31.22,39.51C455.88,343.61,455.93,340.9,456,337.2Z"/><path class="cls-17" d="M235.74,345.16v96h-4.8s-8-22.41-6.72-44.5l-5.44-33.3-17.93,77.8H195.4s-4.73-28.72,1.92-46.1l2.57-49.94Z"/><path class="cls-15" d="M235.74,345.16s-8.75,6.84-36.16,6l.31-6,20.7-3.83"/><path class="cls-19" d="M255.6,335.45a16.62,16.62,0,0,1,2.69-2.57s4-3,4.66-3.37a1.16,1.16,0,0,1,.15,1.81,15.17,15.17,0,0,1-2.31,2.3,11.07,11.07,0,0,0,3.38-.76c1.23-.62,3.7-1.77,4.52-1.47s.29,1.05.29,1.05-3.8,1.76-4.61,2.15-.38.57-.38.57l5.64-1.11c.85-.17,1.28.27,1.18,1.1,0,0-2.55.52-4.08,1-.53.17-2.45.36-2.22,1,0,0,4.18-.35,4.88-.5s1.16.41.84,1.12l-5.64.94s-.37.15-.19.38a12.81,12.81,0,0,0,3.11.65c.29,0,1.22,0,1.13.76,0,0-.06.26-.93.28s-5,.25-5,.25a12.12,12.12,0,0,1-5.59-.64c-2.94-1.08-3.13-2.37-2.19-.78l.3-1.72Z"/><path class="cls-49" d="M221.63,293c1.77-2.8,8.42-4.46,11.43,6.16,3.79,13.37,8.47,30.31,32.59,36.48v5.49s-30.1,1.7-42.62-29.84C221.46,307.33,218.15,298.51,221.63,293Z"/><path class="cls-8" d="M199.89,345.16s19.64,5.33,35.85,0c0,0-1.46-30.61-4.69-45.87-1.46-6.91-4.25-11.49-8.51-11.49l-9.32-.29a11.2,11.2,0,0,0-5.49,2.86c-2.3,2.53-3.31,6.44-4.49,14.15l-4,41.23Z"/><rect class="cls-50" x="241.65" y="227.05" width="220.42" height="197.82" rx="5.07" transform="translate(-67.22 92.66) rotate(-13.71)"/><path class="cls-25" d="M427.07,205.81l-197.3,48.12a8.66,8.66,0,0,0-6.36,10.48L228.92,287l214.14-52.23-5.51-22.59A8.66,8.66,0,0,0,427.07,205.81Z"/><rect class="cls-51" x="257.66" y="268.04" width="196.43" height="145.89" rx="4.18" transform="translate(-70.67 94.04) rotate(-13.71)"/><path class="cls-52" d="M250.13,265.39a8.63,8.63,0,1,1-10.43-6.33A8.64,8.64,0,0,1,250.13,265.39Z"/><path class="cls-25" d="M248.25,265.85a6.69,6.69,0,1,1-8.09-4.91A6.7,6.7,0,0,1,248.25,265.85Z"/><path class="cls-36" d="M247.05,266.14a5.46,5.46,0,1,1-6.6-4A5.47,5.47,0,0,1,247.05,266.14Z"/><path class="cls-37" d="M245,266.66a3.3,3.3,0,1,1-4-2.42A3.29,3.29,0,0,1,245,266.66Z"/><path class="cls-52" d="M274.4,259.47A8.63,8.63,0,1,1,264,253.14,8.63,8.63,0,0,1,274.4,259.47Z"/><path class="cls-25" d="M272.52,259.93a6.69,6.69,0,1,1-8.08-4.91A6.69,6.69,0,0,1,272.52,259.93Z"/><path class="cls-38" d="M271.33,260.22a5.47,5.47,0,1,1-6.6-4A5.46,5.46,0,0,1,271.33,260.22Z"/><path class="cls-39" d="M269.22,260.74a3.29,3.29,0,1,1-4-2.43A3.3,3.3,0,0,1,269.22,260.74Z"/><path class="cls-52" d="M298.67,253.55a8.62,8.62,0,1,1-10.42-6.33A8.61,8.61,0,0,1,298.67,253.55Z"/><path class="cls-25" d="M296.79,254a6.69,6.69,0,1,1-8.08-4.91A6.69,6.69,0,0,1,296.79,254Z"/><path class="cls-40" d="M295.6,254.3a5.46,5.46,0,1,1-6.6-4A5.45,5.45,0,0,1,295.6,254.3Z"/><path class="cls-41" d="M293.5,254.82a3.3,3.3,0,1,1-4-2.43A3.3,3.3,0,0,1,293.5,254.82Z"/><polyline class="cls-53" points="259.59 298.19 254.66 306.3 262.76 311.22"/><polyline class="cls-53" points="275.96 294.2 284.07 299.12 279.15 307.22"/><line class="cls-53" x1="268.47" y1="311.01" x2="270.19" y2="295.61"/><path class="cls-43" d="M294.72,304.73a1.89,1.89,0,1,1-2.29-1.39A1.89,1.89,0,0,1,294.72,304.73Z"/><path class="cls-43" d="M302.33,302.87a1.89,1.89,0,1,1-2.29-1.39A1.9,1.9,0,0,1,302.33,302.87Z"/><path class="cls-43" d="M309.94,301a1.89,1.89,0,1,1-2.29-1.39A1.89,1.89,0,0,1,309.94,301Z"/><line class="cls-53" x1="263.04" y1="326.49" x2="389.85" y2="295.56"/><line class="cls-53" x1="401.73" y1="292.66" x2="416.83" y2="288.98"/><line class="cls-53" x1="425.31" y1="286.91" x2="431.74" y2="285.34"/><line class="cls-54" x1="266.8" y1="341.9" x2="361.72" y2="318.75"/><line class="cls-54" x1="379.95" y1="314.3" x2="384.6" y2="313.17"/><line class="cls-54" x1="386.76" y1="322.03" x2="372.07" y2="325.62"/><line class="cls-54" x1="363.88" y1="327.61" x2="351.86" y2="330.55"/><line class="cls-54" x1="342.32" y1="332.87" x2="330.3" y2="335.81"/><line class="cls-54" x1="320.76" y1="338.13" x2="308.74" y2="341.06"/><line class="cls-54" x1="299.19" y1="343.39" x2="287.18" y2="346.32"/><line class="cls-55" x1="406.57" y1="328.62" x2="289.8" y2="357.1"/><line class="cls-54" x1="273.29" y1="349.71" x2="268.96" y2="350.77"/><line class="cls-54" x1="275.92" y1="360.49" x2="271.59" y2="361.54"/><line class="cls-54" x1="278.55" y1="371.26" x2="274.22" y2="372.32"/><line class="cls-54" x1="281.18" y1="382.04" x2="276.84" y2="383.1"/><line class="cls-55" x1="417.83" y1="325.87" x2="430.66" y2="322.74"/><line class="cls-55" x1="291.99" y1="367.98" x2="343.41" y2="355.44"/><line class="cls-55" x1="294.68" y1="379.03" x2="346.1" y2="366.48"/><line class="cls-55" x1="297.38" y1="390.07" x2="348.79" y2="377.52"/><line class="cls-55" x1="300.07" y1="401.11" x2="351.49" y2="388.57"/><line class="cls-56" x1="385.41" y1="380.29" x2="420.99" y2="371.61"/><line class="cls-56" x1="399.81" y1="365.08" x2="418.3" y2="360.57"/><line class="cls-56" x1="398.62" y1="353.39" x2="415.54" y2="349.27"/><polygon class="cls-16" points="230.94 441.2 230.94 444.8 245.85 444.8 235.74 441.2 230.94 441.2"/><polygon class="cls-16" points="195.34 441.2 195.34 444.8 204.35 448.92 208.4 448.92 200.85 441.2 195.34 441.2"/><polygon class="cls-15" points="218.78 363.4 224.91 351.17 224.22 396.7 218.78 363.4"/><path class="cls-21" d="M234.34,252.82c-.41-.69-8.06,0-11.38.5-3.84-.11-12.43,2.65-13.56,8.2,0,0-11.48,8.15,3.82,19l3.8-1.22,5.48-4.52L230,264.4a8.84,8.84,0,0,0,2-.35C237.84,261.06,236.23,256,234.34,252.82Z"/><path class="cls-22" d="M230.62,268.76a8.13,8.13,0,0,1,3,5.84h-5.15Z"/><path class="cls-19" d="M215.91,278.92a17.24,17.24,0,0,0,2.77-6.28s-4-.83-3.34-3.76c.57-2.43,3.62-1.61,4.6.48v2.79s1.57,0,1.85-5.39l1.84-2.36H230a25.63,25.63,0,0,1,1.62,11.88h-4.31s.93,1.69,3.92,2.32a19.89,19.89,0,0,1-1.23,3.79h-6.33v5.52l0,4.8-10.4-5.2v-6.95Z"/><path class="cls-57" d="M227.05,323.67c-7.11-5.69-11.71-13.91-15.29-22.24a30.07,30.07,0,0,1-2.27-7.52,10.61,10.61,0,0,0-1.26,4.2l-.64,8.94c.32,1.63.69,3.07,1,4.16,5.16,19.2,17.61,27.76,27.05,31.56-.12-2.18-.33-5.69-.64-9.9A35.73,35.73,0,0,1,227.05,323.67Z"/><path class="cls-58" d="M207.63,293c1.76-2.8,8.42-4.46,11.42,6.16,3.79,13.37,8.48,30.31,32.59,36.48v5.49s-30.09,1.7-42.61-29.84C207.45,307.33,204.15,298.51,207.63,293Z"/><path class="cls-19" d="M252.77,336.38a16.19,16.19,0,0,1,2.69-2.57s4-3,4.67-3.37a1.16,1.16,0,0,1,.14,1.81,15.17,15.17,0,0,1-2.31,2.3,11.21,11.21,0,0,0,3.38-.77c1.23-.62,3.7-1.76,4.53-1.46s.29,1.05.29,1.05l-4.61,2.14c-.72.34-.38.57-.38.57L266.8,335c.86-.16,1.28.28,1.18,1.1,0,0-2.54.53-4.08,1-.53.16-2.45.36-2.22,1,0,0,4.19-.36,4.88-.51s1.16.41.84,1.12l-5.63.95s-.38.15-.2.38a13.41,13.41,0,0,0,3.11.65c.29,0,1.22,0,1.14.76,0,0-.07.26-.94.28s-5,.24-5,.24a12,12,0,0,1-5.59-.63c-2.94-1.09-3.12-2.37-2.19-.78l.3-1.72Z"/><rect class="cls-8" x="250.71" y="335.4" width="3.08" height="5.75" transform="translate(504.5 676.54) rotate(180)"/><path class="cls-19" d="M442.88,337.18a16.3,16.3,0,0,0-2.83-2.41s-4.18-2.73-4.85-3.11a1.16,1.16,0,0,0,0,1.82,14.65,14.65,0,0,0,2.44,2.16,11.26,11.26,0,0,1-3.42-.56c-1.27-.55-3.8-1.56-4.6-1.21s-.23,1.07-.23,1.07l4.72,1.87c.73.3.41.55.41.55l-5.69-.78c-.86-.12-1.26.34-1.11,1.16,0,0,2.57.38,4.13.75.54.13,2.46.23,2.27.87,0,0-4.2-.12-4.9-.23s-1.14.47-.77,1.16l5.67.63s.39.12.22.36a13,13,0,0,1-3.07.83c-.29,0-1.22,0-1.09.82,0,0,.08.26.95.23s5,0,5,0a12.14,12.14,0,0,0,5.55-.95c2.86-1.25,3-2.55,2.13-.9l-.4-1.71Z"/><path class="cls-7" d="M486.22,294.07c-1.76-2.81-8.4-4.5-11.46,6.1-3.86,13.35-8.63,30.27-32.78,36.32l0,5.48s30.09,1.86,42.77-29.62C486.32,308.4,489.67,299.6,486.22,294.07Z"/><path class="cls-59" d="M133.78,391.38s-10.26,1.31-10.1-14.86a38,38,0,0,0-9.43-9.39v-2s-.46.43-1.19,1.16c-1.12-.73-1.88-1.16-1.88-1.16l.29,2.85a75.1,75.1,0,0,0-6.65,8.51c.16,16.17-10.11,14.86-10.11,14.86l19.54.56V392h0Z"/><path class="cls-60" d="M104.33,382.76h19.84a28.23,28.23,0,0,1-.41-3.31h-19A28.23,28.23,0,0,1,104.33,382.76Z"/><path class="cls-61" d="M169.11,365.22v12.13a3.83,3.83,0,0,1-3.83,3.83H63.21a3.83,3.83,0,0,1-3.82-3.83V365.11"/><path class="cls-62" d="M165,313.05H63.45a4.07,4.07,0,0,0-4.06,4.07V366.3H169.11V317.12A4.07,4.07,0,0,0,165,313.05Z"/><path class="cls-63" d="M117.18,373.63a3.12,3.12,0,1,0,0,3A3.37,3.37,0,0,0,117.18,373.63Z"/><path class="cls-63" d="M116.49,369.37a1.57,1.57,0,0,0-2.22,2.21Z"/><rect class="cls-61" x="93.38" y="391.18" width="41.75" height="1.7"/><rect class="cls-6" x="64.73" y="318.84" width="99.8" height="42.3"/><rect class="cls-7" x="88.4" y="320.58" width="64.78" height="27.45"/><rect class="cls-9" x="90.66" y="324.32" width="60.27" height="2.24"/><rect class="cls-9" x="90.66" y="332.75" width="60.27" height="2.24"/><rect class="cls-9" x="90.66" y="341.18" width="60.27" height="2.24"/><rect class="cls-9" x="111.89" y="337.68" width="46.21" height="19.58"/><rect class="cls-64" x="114.11" y="339.69" width="18.37" height="15.57"/><rect class="cls-64" x="137.1" y="339.69" width="18.37" height="1.35"/><rect class="cls-64" x="137.1" y="343.54" width="18.37" height="1.35"/><rect class="cls-64" x="137.1" y="347.39" width="18.37" height="1.35"/><rect class="cls-64" x="137.1" y="351.24" width="18.37" height="1.35"/><rect class="cls-12" x="81.21" y="350.54" width="22.89" height="8.07"/><rect class="cls-8" x="141.74" y="327.89" width="18.29" height="19.58"/><rect class="cls-65" x="143.43" y="329.7" width="7.79" height="8.34"/><rect class="cls-65" x="154.67" y="332.32" width="2.89" height="3.09"/><rect class="cls-65" x="154.67" y="338.45" width="2.89" height="3.09"/><rect class="cls-8" x="106.71" y="330.44" width="13.53" height="14.49"/><rect class="cls-7" x="108.29" y="332.08" width="10.37" height="0.56"/><rect class="cls-7" x="108.29" y="335.13" width="10.37" height="0.57"/><rect class="cls-7" x="108.29" y="338.19" width="10.37" height="0.57"/><rect class="cls-7" x="108.29" y="341.24" width="10.37" height="0.56"/><path class="cls-66" d="M149.23,396c.38.28,10.4,10.39,10.4,10.39V396Z"/><path class="cls-66" d="M16.52,396c-.38.28-10.4,10.39-10.4,10.39V396Z"/><rect class="cls-65" x="5.48" y="397.39" width="3.46" height="79.56"/><rect class="cls-67" x="5.48" y="470.02" width="3.46" height="6.93"/><rect class="cls-68" y="392.37" width="169.27" height="5.02" transform="translate(169.27 789.76) rotate(180)"/><rect class="cls-65" x="156.81" y="397.39" width="3.46" height="79.56" transform="translate(317.08 874.34) rotate(180)"/><rect class="cls-67" x="156.81" y="470.02" width="3.46" height="6.93" transform="translate(317.08 946.97) rotate(180)"/><path class="cls-69" d="M83.74,432.54s.05,21.14-19.62,40.3l-1.23-3,9.92-39.19Z"/><polygon class="cls-16" points="93.72 468.89 97.26 469.82 111.07 476.19 95.57 476.19 93.72 468.89"/><polygon class="cls-16" points="62.51 468.89 66.04 469.82 79.85 476.19 64.36 476.19 62.51 468.89"/><path class="cls-70" d="M96.28,479.11a1.19,1.19,0,0,0,.45-.08,1.17,1.17,0,0,0,.64-1.53l-18-44.19a1.18,1.18,0,0,0-2.18.89l18,44.18A1.18,1.18,0,0,0,96.28,479.11Z"/><path class="cls-70" d="M66.19,479.11a1.11,1.11,0,0,0,.44-.08,1.18,1.18,0,0,0,.65-1.53l-18-44.19a1.17,1.17,0,0,0-1.53-.64,1.18,1.18,0,0,0-.65,1.53l18,44.18A1.18,1.18,0,0,0,66.19,479.11Z"/><path class="cls-70" d="M15.78,479.11a1.16,1.16,0,0,0,1.09-.73l18-44.18a1.18,1.18,0,0,0-.65-1.53,1.17,1.17,0,0,0-1.53.64l-18,44.19a1.16,1.16,0,0,0,1.09,1.61Z"/><path class="cls-70" d="M45.88,479.11a1.18,1.18,0,0,0,1.09-.73l18-44.18a1.18,1.18,0,0,0-2.18-.89l-18,44.19a1.17,1.17,0,0,0,.64,1.53A1.19,1.19,0,0,0,45.88,479.11Z"/><path class="cls-17" d="M87.31,408.62l36,13.64-26,47.56-3.54-.93s-.27-25.37,9.35-35.14H74.46l-15.3-3.12-4.3-7.07,1.34-6.23,12.34-7.15"/><path class="cls-71" d="M26.16,430.63H92a1.77,1.77,0,0,1,1.77,1.77v4.49a0,0,0,0,1,0,0H27.93a1.77,1.77,0,0,1-1.77-1.77v-4.49A0,0,0,0,1,26.16,430.63Z" transform="translate(119.88 867.51) rotate(180)"/><path class="cls-72" d="M68,318.53a16,16,0,0,1-1.1-2.29c-4.16-.13-11.6.5-12.82,6.49,0,0-11.09,8.83,2,20.36l4.1.45,5.91-4.88,8.09-11.25a9.24,9.24,0,0,0,2.12-.38A25.67,25.67,0,0,1,68,318.53Z"/><path class="cls-22" d="M74.84,332.12s2.73,1.78,3.25,6.3H72.53Z"/><path class="cls-19" d="M59,343.09a18.63,18.63,0,0,0,3-6.79s-4.33-.9-3.6-4.05c.61-2.63,3.91-1.75,5,.51v3s1.7,0,2-5.82l2-2.54h6.87a27.67,27.67,0,0,1,1.74,12.82H71.25s1,1.82,4.23,2.5a21.67,21.67,0,0,1-1.32,4.1H67.32v5l-3.93,1.78L60,354.67l-2.88-1.32-1.07-3.67v-6.59Z"/><path class="cls-72" d="M66.87,328a22,22,0,0,0,11.22.5L76.28,327s6.7-2.5,4.48-13.07l-12.49,2.28h-1.4l.44,5.15"/><path class="cls-73" d="M71.51,332.45c0,1.42.72,2.57,1.62,2.57s1.61-1.15,1.61-2.57-.72-2.57-1.61-2.57S71.51,331,71.51,332.45Z"/><line class="cls-74" x1="63.26" y1="332.12" x2="71.4" y2="332.12"/><path class="cls-74" d="M74.91,332.45a2.31,2.31,0,0,1,.89.21"/><path class="cls-12" d="M59.94,423.56s18.87-1.39,27.37-14.94a330.59,330.59,0,0,1-9-35.08c-3.37-17.71-4.76-22.92-10.66-24.31s-12.81,0-12.81,0-13.24,6.95-13.93,32.3c0,26.05,5,37.51,5,37.51Z"/><path class="cls-75" d="M63.83,430.63,52.08,388.4s-5.68-18.74-25.92-18.74c-18.75,0-11.7,21.62-11.7,21.62l11.7,39.35Z"/><path class="cls-19" d="M108.18,390s5,2.1,9.18-1.05h1.3l2.43,2.17h2l-1.65-4-6.81-2.36h-7.32Z"/><path class="cls-7" d="M67.93,353.16S60,354,63,366.28c3.14,12.67,13.33,23.51,13.33,23.51s17.89,3.73,32.74,1v-6.66s-15.31.2-26.09-3.72c0,0-5.87-15.48-7.44-20.57S71.4,352.48,67.93,353.16Z"/><g class="cls-29"><path class="cls-30" d="M186.09,281.11,101.86,281a6.31,6.31,0,0,1-6.31-6.32l.08-89.43A6.32,6.32,0,0,1,102,179l84.23.09a6.32,6.32,0,0,1,6.31,6.32l-.08,89.43A6.31,6.31,0,0,1,186.09,281.11Z"/></g><g class="cls-31"><path class="cls-32" d="M188,179.05,100.1,179a4.47,4.47,0,0,0-4.47,4.47v12l96.86.11,0-12A4.48,4.48,0,0,0,188,179.05Z"/></g><g class="cls-33"><path class="cls-7" d="M182.44,275.73l-75.32-.08a5.19,5.19,0,0,1-5.2-5.21l0-64.85a5.22,5.22,0,0,1,5.22-5.21l75.31.08a5.22,5.22,0,0,1,5.21,5.22l-.06,64.85A5.2,5.2,0,0,1,182.44,275.73Z"/></g><g class="cls-34"><path class="cls-35" d="M108.9,187.2a4.45,4.45,0,1,1-4.45-4.45A4.46,4.46,0,0,1,108.9,187.2Z"/></g><g class="cls-31"><path class="cls-32" d="M107.9,187.2a3.45,3.45,0,1,1-3.45-3.45A3.45,3.45,0,0,1,107.9,187.2Z"/></g><path class="cls-36" d="M107.24,187.2a2.8,2.8,0,1,1-2.79-2.8A2.78,2.78,0,0,1,107.24,187.2Z"/><path class="cls-37" d="M106.13,187.2a1.68,1.68,0,1,1-1.68-1.68A1.68,1.68,0,0,1,106.13,187.2Z"/><g class="cls-34"><path class="cls-35" d="M121.79,187.21a4.45,4.45,0,1,1-4.45-4.45A4.45,4.45,0,0,1,121.79,187.21Z"/></g><g class="cls-31"><path class="cls-32" d="M120.79,187.21a3.45,3.45,0,1,1-3.45-3.45A3.45,3.45,0,0,1,120.79,187.21Z"/></g><path class="cls-38" d="M120.16,187.21a2.82,2.82,0,1,1-2.82-2.82A2.82,2.82,0,0,1,120.16,187.21Z"/><path class="cls-39" d="M119,187.21a1.7,1.7,0,1,1-1.7-1.7A1.7,1.7,0,0,1,119,187.21Z"/><g class="cls-34"><path class="cls-35" d="M134.68,187.23a4.45,4.45,0,1,1-4.45-4.46A4.45,4.45,0,0,1,134.68,187.23Z"/></g><g class="cls-31"><path class="cls-32" d="M133.68,187.22a3.45,3.45,0,1,1-3.45-3.45A3.45,3.45,0,0,1,133.68,187.22Z"/></g><path class="cls-40" d="M133.05,187.22a2.82,2.82,0,1,1-2.82-2.82A2.82,2.82,0,0,1,133.05,187.22Z"/><path class="cls-41" d="M131.93,187.22a1.7,1.7,0,1,1-1.7-1.7A1.7,1.7,0,0,1,131.93,187.22Z"/><path class="cls-43" d="M109.6,212.34a.66.66,0,0,1-.44-.18l-3.45-3.46a.62.62,0,0,1-.18-.44.59.59,0,0,1,.18-.44l3.46-3.46a.62.62,0,0,1,.88,0,.61.61,0,0,1,0,.88l-3,3,3,3a.63.63,0,0,1,0,.88A.66.66,0,0,1,109.6,212.34Z"/><path class="cls-43" d="M118.31,212.35a.62.62,0,0,1-.44-.18.64.64,0,0,1,0-.89l3-3-3-3a.63.63,0,0,1,0-.88.61.61,0,0,1,.88,0l3.46,3.46a.63.63,0,0,1,0,.88l-3.46,3.46A.62.62,0,0,1,118.31,212.35Z"/><path class="cls-43" d="M112.49,212.94a.78.78,0,0,1-.21,0,.62.62,0,0,1-.37-.8l2.75-7.51a.62.62,0,0,1,1.17.43l-2.75,7.51A.63.63,0,0,1,112.49,212.94Z"/><path class="cls-43" d="M126.42,212.39a1,1,0,1,1-1-1A1,1,0,0,1,126.42,212.39Z"/><path class="cls-43" d="M130.46,212.39a1,1,0,1,1-1-1A1,1,0,0,1,130.46,212.39Z"/><path class="cls-43" d="M134.5,212.39a1,1,0,1,1-1.95,0,1,1,0,0,1,1.95,0Z"/><path class="cls-43" d="M165,220.09h0L107.87,220a.63.63,0,0,1,0-1.25h0l57.14.06a.63.63,0,0,1,0,1.25Z"/><path class="cls-43" d="M173.93,220.1h-2.61a.62.62,0,0,1,0-1.24h2.61a.63.63,0,1,1,0,1.25Z"/><path class="cls-43" d="M181.86,220.11h-3.42a.62.62,0,1,1,0-1.24h3.42a.63.63,0,0,1,0,1.25Z"/><path class="cls-44" d="M148.07,228.26h0l-40.21,0a.62.62,0,0,1-.62-.62.62.62,0,0,1,.62-.62h0l40.21,0a.63.63,0,0,1,0,1.25Z"/><path class="cls-44" d="M160.22,228.27h-2.47a.63.63,0,0,1-.62-.63.62.62,0,0,1,.62-.62h2.47a.63.63,0,0,1,0,1.25Z"/><path class="cls-44" d="M148.06,233h-6.38a.63.63,0,0,1,0-1.25h6.38a.62.62,0,1,1,0,1.24Z"/><path class="cls-44" d="M136.61,233h-6.38a.63.63,0,0,1,0-1.25h6.38a.62.62,0,1,1,0,1.24Z"/><path class="cls-44" d="M123.92,232.93h-6.39a.63.63,0,0,1,0-1.25h6.39a.62.62,0,1,1,0,1.24Z"/><path class="cls-45" d="M169.33,238.71h0l-51.8-.06a.63.63,0,0,1,0-1.25h0l51.8.06a.63.63,0,0,1,0,1.25Z"/><path class="cls-44" d="M110.16,232.92h-2.3a.63.63,0,0,1,0-1.25h2.3a.62.62,0,0,1,.63.62A.63.63,0,0,1,110.16,232.92Z"/><path class="cls-44" d="M110.16,238.64h-2.3a.63.63,0,0,1-.63-.62.62.62,0,0,1,.63-.62h2.3a.62.62,0,0,1,0,1.24Z"/><path class="cls-44" d="M110.15,244.37h-2.3a.62.62,0,0,1-.62-.62.62.62,0,0,1,.62-.62h2.3a.63.63,0,1,1,0,1.25Z"/><path class="cls-44" d="M110.15,250.09h-2.31a.63.63,0,0,1,0-1.25h2.31a.63.63,0,0,1,0,1.25Z"/><path class="cls-45" d="M134.39,244.4h0l-17.1,0a.62.62,0,0,1-.62-.62.62.62,0,0,1,.62-.62h0l17.1,0a.63.63,0,0,1,0,1.25Z"/><path class="cls-45" d="M134.38,250.26h0l-17.1,0a.63.63,0,0,1,0-1.25h0l17.09,0a.63.63,0,0,1,.63.63A.63.63,0,0,1,134.38,250.26Z"/><path class="cls-45" d="M134.38,256.12h0l-17.1,0a.63.63,0,0,1,0-1.25h0l17.1,0a.62.62,0,0,1,0,1.24Z"/><path class="cls-45" d="M134.37,262h0l-17.1,0a.62.62,0,0,1-.62-.62.62.62,0,0,1,.62-.62h0l17.1,0a.62.62,0,0,1,.62.62A.63.63,0,0,1,134.37,262Z"/><path class="cls-42" d="M171.28,262h0l-18.89,0a.62.62,0,1,1,0-1.24h18.89a.63.63,0,1,1,0,1.25Z"/><path class="cls-42" d="M171.29,256.16h-9.82a.63.63,0,0,1,0-1.25h9.82a.63.63,0,0,1,0,1.25Z"/><path class="cls-42" d="M171.29,250.15h-9a.62.62,0,0,1-.62-.62.62.62,0,0,1,.62-.62h9a.62.62,0,1,1,0,1.24Z"/><g class="cls-29"><path class="cls-30" d="M110,307.55l-46.48-.06a3.87,3.87,0,0,1-3.87-3.88l0-91.18a3.87,3.87,0,0,1,3.88-3.87l46.48.05A3.88,3.88,0,0,1,114,212.5l0,91.17A3.88,3.88,0,0,1,110,307.55Z"/></g><g class="cls-31"><path class="cls-32" d="M111.22,208.62l-48.75-.06a2.74,2.74,0,0,0-2.74,2.74v7.36l54.23.07v-7.37A2.74,2.74,0,0,0,111.22,208.62Z"/></g><g class="cls-33"><path class="cls-7" d="M107.79,304.25l-41-.05a3.19,3.19,0,0,1-3.19-3.2l0-76.1a3.19,3.19,0,0,1,3.2-3.19l41,0A3.19,3.19,0,0,1,111,225l0,76.09A3.21,3.21,0,0,1,107.79,304.25Z"/></g><g class="cls-34"><path class="cls-35" d="M67.87,213.62a2.73,2.73,0,1,1-2.73-2.74A2.73,2.73,0,0,1,67.87,213.62Z"/></g><g class="cls-31"><path class="cls-32" d="M67.26,213.62a2.12,2.12,0,1,1-2.12-2.12A2.11,2.11,0,0,1,67.26,213.62Z"/></g><path class="cls-36" d="M66.85,213.62a1.72,1.72,0,1,1-1.71-1.72A1.71,1.71,0,0,1,66.85,213.62Z"/><path class="cls-37" d="M66.17,213.62a1,1,0,0,1-2.06,0,1,1,0,1,1,2.06,0Z"/><g class="cls-34"><path class="cls-35" d="M75.78,213.62a2.73,2.73,0,1,1-2.73-2.73A2.73,2.73,0,0,1,75.78,213.62Z"/></g><g class="cls-31"><path class="cls-32" d="M75.17,213.62a2.12,2.12,0,1,1-2.12-2.12A2.12,2.12,0,0,1,75.17,213.62Z"/></g><path class="cls-38" d="M74.78,213.62a1.73,1.73,0,1,1-1.73-1.73A1.73,1.73,0,0,1,74.78,213.62Z"/><path class="cls-39" d="M74.09,213.62a1,1,0,1,1-1-1A1,1,0,0,1,74.09,213.62Z"/><g class="cls-34"><path class="cls-35" d="M83.69,213.63A2.73,2.73,0,1,1,81,210.9,2.73,2.73,0,0,1,83.69,213.63Z"/></g><g class="cls-31"><path class="cls-32" d="M83.08,213.63A2.12,2.12,0,1,1,81,211.51,2.12,2.12,0,0,1,83.08,213.63Z"/></g><path class="cls-40" d="M82.69,213.63A1.73,1.73,0,1,1,81,211.9,1.72,1.72,0,0,1,82.69,213.63Z"/><path class="cls-41" d="M82,213.63a1,1,0,1,1-1.05-1A1,1,0,0,1,82,213.63Z"/><path class="cls-42" d="M68.3,229a.38.38,0,0,1-.27-.11l-2.12-2.12a.39.39,0,0,1,0-.54L68,224.15a.38.38,0,0,1,.54.54l-1.86,1.85,1.85,1.85a.38.38,0,0,1,0,.54A.35.35,0,0,1,68.3,229Z"/><path class="cls-42" d="M73.65,229.05a.39.39,0,0,1-.27-.11.38.38,0,0,1,0-.54l1.85-1.85-1.85-1.86a.38.38,0,0,1,.54-.54L76,226.28a.39.39,0,0,1,0,.54l-2.12,2.12A.43.43,0,0,1,73.65,229.05Z"/><path class="cls-42" d="M70.08,229.41l-.14,0a.38.38,0,0,1-.22-.49l1.69-4.61a.38.38,0,0,1,.49-.23.37.37,0,0,1,.22.49l-1.68,4.61A.4.4,0,0,1,70.08,229.41Z"/><path class="cls-42" d="M78,229.86h0a.79.79,0,1,1,.79-.79h0A.79.79,0,0,1,78,229.86Zm0-1.2a.41.41,0,0,0-.4.41.4.4,0,0,0,.4.41h0a.41.41,0,0,0,.41-.41A.42.42,0,0,0,78,228.66Zm.6.41h0Z"/><path class="cls-42" d="M80.5,229.87h0a.8.8,0,0,1-.56-.24.81.81,0,0,1-.23-.56.77.77,0,0,1,.24-.55.76.76,0,0,1,.55-.24h0a.79.79,0,0,1,.79.8.76.76,0,0,1-.23.55A.8.8,0,0,1,80.5,229.87Zm0-1.2a.41.41,0,0,0-.4.4.38.38,0,0,0,.12.29.36.36,0,0,0,.28.12h0a.38.38,0,0,0,.29-.12.38.38,0,0,0,.12-.28.41.41,0,0,0-.41-.41Z"/><path class="cls-42" d="M83,229.87h0a.79.79,0,0,1,0-1.58.79.79,0,0,1,.79.79h0A.79.79,0,0,1,83,229.87Zm0-1.2a.4.4,0,0,0-.4.41.42.42,0,0,0,.4.41h0a.41.41,0,0,0,.41-.41A.41.41,0,0,0,83,228.67Zm.6.41h0Z"/><path class="cls-43" d="M102.31,233.8h0l-35.07,0a.38.38,0,0,1,0-.76h0l35.07,0a.4.4,0,0,1,.38.39A.38.38,0,0,1,102.31,233.8Z"/><path class="cls-43" d="M88,277h0l-20.74,0a.38.38,0,0,1,0-.76h0l20.74,0a.39.39,0,1,1,0,.77Z"/><path class="cls-43" d="M88,281.48h0l-20.74,0a.38.38,0,0,1,0-.76h0l20.74,0a.38.38,0,0,1,.39.39A.39.39,0,0,1,88,281.48Z"/><path class="cls-43" d="M88,286h0l-20.74,0a.39.39,0,0,1,0-.77h0l20.74,0a.38.38,0,0,1,.39.38A.4.4,0,0,1,88,286Z"/><path class="cls-43" d="M88,290.47h0l-20.74,0a.39.39,0,0,1,0-.77h0l20.74,0a.38.38,0,0,1,.39.38A.39.39,0,0,1,88,290.47Z"/><path class="cls-43" d="M88,295h0l-20.74,0a.4.4,0,0,1-.38-.39.38.38,0,0,1,.38-.38h0l20.74,0a.38.38,0,0,1,.39.38A.39.39,0,0,1,88,295Z"/><path class="cls-43" d="M88,299.47h0l-20.74,0a.38.38,0,0,1,0-.76h0l20.74,0a.38.38,0,0,1,.39.38A.39.39,0,0,1,88,299.47Z"/><path class="cls-43" d="M107.79,233.81h-1.61a.38.38,0,0,1,0-.76h1.61a.39.39,0,0,1,0,.77Z"/><path class="cls-44" d="M91.91,238.81h0l-24.68,0a.39.39,0,0,1,0-.77h0l24.67,0a.38.38,0,0,1,0,.76Z"/><path class="cls-44" d="M99.37,238.82H97.85a.38.38,0,1,1,0-.76h1.52a.38.38,0,0,1,0,.76Z"/><path class="cls-44" d="M91.91,241.7H88a.38.38,0,0,1,0-.76h3.92a.38.38,0,0,1,0,.76Z"/><path class="cls-44" d="M84.88,241.7H81a.38.38,0,1,1,0-.76h3.92a.39.39,0,0,1,0,.77Z"/><path class="cls-44" d="M77.09,241.68H73.17a.38.38,0,0,1,0-.76h3.92a.38.38,0,0,1,0,.76Z"/><path class="cls-45" d="M105,245.23h0l-31.79,0a.38.38,0,1,1,0-.76h0l31.79,0a.39.39,0,0,1,0,.77Z"/><path class="cls-44" d="M68.65,241.68H67.23a.39.39,0,0,1-.38-.39.38.38,0,0,1,.38-.38h1.42a.39.39,0,0,1,0,.77Z"/><path class="cls-44" d="M68.64,245.19H67.23a.39.39,0,0,1,0-.77h1.41a.4.4,0,0,1,.39.39A.39.39,0,0,1,68.64,245.19Z"/><path class="cls-44" d="M68.64,248.7H67.23a.38.38,0,1,1,0-.76h1.41a.38.38,0,0,1,0,.76Z"/><path class="cls-44" d="M68.64,252.21H67.22a.38.38,0,0,1,0-.76h1.42a.38.38,0,0,1,0,.76Z"/><path class="cls-45" d="M83.51,248.72H73a.39.39,0,0,1-.38-.39.38.38,0,0,1,.38-.38h0l10.5,0a.38.38,0,1,1,0,.76Z"/><path class="cls-45" d="M83.51,252.32h0L73,252.3a.38.38,0,0,1-.39-.38.39.39,0,0,1,.39-.38H83.51a.39.39,0,0,1,.38.39A.38.38,0,0,1,83.51,252.32Z"/><path class="cls-45" d="M83.51,255.92h0l-10.5,0a.38.38,0,1,1,0-.76h10.5a.39.39,0,0,1,0,.77Z"/><path class="cls-45" d="M83.5,259.52h0L73,259.5a.38.38,0,1,1,0-.76h10.5a.38.38,0,0,1,.38.38A.38.38,0,0,1,83.5,259.52Z"/><path class="cls-45" d="M88,271.45a.38.38,0,1,1,0-.76l18.58,0h0a.38.38,0,0,1,0,.76l-18.58,0Z"/><path class="cls-45" d="M100.52,275a.4.4,0,0,1-.39-.38.38.38,0,0,1,.39-.38h6.13a.38.38,0,1,1,0,.76Z"/><path class="cls-45" d="M100.52,278.55a.38.38,0,1,1,0-.76h6.13a.38.38,0,1,1,0,.76Z"/><path class="cls-45" d="M100.52,282.15a.38.38,0,1,1,0-.76l6.13,0h0a.39.39,0,0,1,.38.39.38.38,0,0,1-.38.38Z"/><path class="cls-45" d="M100.53,285.75a.39.39,0,1,1,0-.77h6.13a.39.39,0,0,1,0,.77Z"/><path class="cls-42" d="M106.16,259.54H94.56a.39.39,0,0,1-.38-.39.38.38,0,0,1,.38-.38h11.6a.39.39,0,0,1,0,.77Z"/><path class="cls-42" d="M89.49,266.2H77.89a.39.39,0,0,1-.38-.39.38.38,0,0,1,.38-.38h11.6a.39.39,0,0,1,0,.77Z"/><path class="cls-42" d="M89.49,268.34H77.89a.38.38,0,1,1,0-.76h11.6a.38.38,0,0,1,0,.76Z"/><path class="cls-42" d="M106.16,255.94h-6a.38.38,0,1,1,0-.76h6a.39.39,0,0,1,0,.77Z"/><path class="cls-42" d="M106.16,252.25h-5.51a.39.39,0,0,1,0-.77h5.51a.38.38,0,1,1,0,.76Z"/><path class="cls-42" d="M92.46,255.94h-6a.38.38,0,1,1,0-.76h6a.39.39,0,0,1,0,.77Z"/><path class="cls-42" d="M92.46,252.25H87a.39.39,0,0,1,0-.77h5.51a.38.38,0,1,1,0,.76Z"/><path class="cls-42" d="M96.75,255.93H94.84a.38.38,0,1,1,0-.76h1.91a.38.38,0,1,1,0,.76Z"/><path class="cls-42" d="M96.76,252.25H95a.39.39,0,0,1,0-.77h1.76a.39.39,0,0,1,.38.39A.38.38,0,0,1,96.76,252.25Z"/><path class="cls-42" d="M94.38,290.29H92.46a.39.39,0,0,1,0-.77h1.92a.39.39,0,0,1,.38.39A.38.38,0,0,1,94.38,290.29Z"/><path class="cls-42" d="M94.38,286.6H92.63a.38.38,0,1,1,0-.76h1.75a.38.38,0,1,1,0,.76Z"/><path class="cls-42" d="M94.38,298.57H92.46a.38.38,0,1,1,0-.76h1.92a.38.38,0,0,1,0,.76Z"/><path class="cls-42" d="M94.38,294.89H92.63a.39.39,0,0,1-.38-.39.38.38,0,0,1,.38-.38h1.75a.39.39,0,0,1,0,.77Z"/><path class="cls-42" d="M98.81,298.57H96.89a.38.38,0,1,1,0-.76h1.92a.38.38,0,0,1,0,.76Z"/><path class="cls-42" d="M98.81,294.89H97.06a.39.39,0,0,1-.38-.39.38.38,0,0,1,.38-.38h1.75a.39.39,0,0,1,0,.77Z"/><path class="cls-42" d="M103.24,298.57h-1.92a.38.38,0,0,1,0-.76h1.92a.38.38,0,0,1,0,.76Z"/><path class="cls-42" d="M103.24,294.89h-1.75a.39.39,0,0,1-.38-.39.38.38,0,0,1,.38-.38h1.75a.39.39,0,0,1,0,.77Z"/><path class="cls-42" d="M107.67,298.57h-1.92a.38.38,0,0,1,0-.76h1.92a.38.38,0,1,1,0,.76Z"/><path class="cls-42" d="M107.67,294.89h-1.75a.39.39,0,0,1-.38-.39.38.38,0,0,1,.38-.38h1.75a.39.39,0,0,1,0,.77Z"/><path class="cls-76" d="M383.67,473.18c0,3.89-7.09,7.05-15.85,7.05S352,477.07,352,473.18s7.1-7.06,15.85-7.06S383.67,469.28,383.67,473.18Z"/><path class="cls-77" d="M383.51,453.84l-2.55.6c-2.35-2.17-7.35-3.68-13.14-3.68s-10.78,1.5-13.13,3.68l-2.55-.6,1.22,18.74h0c.85,3.23,7,5.73,14.46,5.73s13.62-2.5,14.46-5.73h0Z"/><path class="cls-78" d="M357.42,470v3.11a15.82,15.82,0,0,0,7.09,1.34V471.3A15.93,15.93,0,0,1,357.42,470Z"/><path class="cls-79" d="M383.67,452.83c0,3.89-7.09,7.05-15.85,7.05S352,456.72,352,452.83s7.1-7.06,15.85-7.06S383.67,448.93,383.67,452.83Z"/><path class="cls-80" d="M380.2,452.11c0,3-5.54,5.51-12.38,5.51s-12.37-2.47-12.37-5.51,5.54-5.51,12.37-5.51S380.2,449.07,380.2,452.11Z"/><path class="cls-81" d="M367.26,453.61l-28.75-26.4s-.25,5.91,3.65,9,7,2,7.54,6.94,3.79,7.72,6.7,8.15C362.33,452.21,363.71,455.38,367.26,453.61Z"/><path class="cls-68" d="M367.26,453.61l-28.75-26.4s5.86-.74,9.32,2.88,2.62,6.85,7.55,6.91,8,3.12,8.69,6C365.45,448.81,368.72,449.92,367.26,453.61Z"/><path class="cls-82" d="M367.82,454V354.93s-11.46,9.69-10.62,22.36,8.3,16.66,0,26-7.92,20.33-3.74,26.5C362,442.37,358.41,450.39,367.82,454Z"/><path class="cls-83" d="M367.82,454V354.93s11.47,9.69,10.63,22.36-8.31,16.66,0,26,7.92,20.33,3.73,26.5C373.67,442.37,377.23,450.39,367.82,454Z"/><path class="cls-84" d="M371.9,454.14l20.51-61.71s-9.14,3.66-11.24,11.72,1.72,12.1-5.41,16.19-9.15,11-7.81,15.73C370.67,445.69,366.79,449.94,371.9,454.14Z"/><path class="cls-85" d="M371.9,454.14l20.51-61.71s5.14,8.4,2,16.12-8.62,8.66-5.35,16.21.72,14.3-3.16,17.27C378,448.11,378.51,453.84,371.9,454.14Z"/></g></g></g></g></svg>