<svg xmlns="http://www.w3.org/2000/svg" xmlns:xlink="http://www.w3.org/1999/xlink" viewBox="0 0 594 328.28"><defs><style>.cls-1{fill:none;}.cls-2{isolation:isolate;}.cls-3{clip-path:url(#clip-path);}.cls-4,.cls-5,.cls-6{fill:#55c3ff;}.cls-4,.cls-5{mix-blend-mode:multiply;}.cls-5{opacity:0.7;}.cls-7{fill:#0a1e29;}</style><clipPath id="clip-path" transform="translate(0 -163.59)"><rect class="cls-1" x="105.98" width="339.57" height="395.01" rx="15.42"/></clipPath></defs><title>block3_card</title><g class="cls-2"><g id="Layer_2" data-name="Layer 2"><g id="Block_3" data-name="Block 3"><g class="cls-3"><path class="cls-4" d="M493.05,489.33c-1-12-3.93-201.71-10.7-222.38C464.67,213,391.19,212.4,360,221.6s-52.93,8.87-122.5-10.77S112.09,229.13,61,231.94,6.53,209.22,6.53,209.22L0,489.33Z" transform="translate(0 -163.59)"/><path class="cls-5" d="M11.54,205.88s25.47-29.18,72.68-33,117.45,44.52,202.54,37.37c97.4-8.19,124.76-57.95,175.82-39.93,60.93,21.5,45.95,283.76,45.95,283.76l-506,.77Z" transform="translate(0 -163.59)"/><path class="cls-6" d="M47.15,169.7s29.22,38.39,94.41,29.94,105.64-48.37,165.58-32.25,92.15,45.31,136.36,28.42,38.21,79.09,38.21,79.09H38.16Z" transform="translate(0 -163.59)"/><path class="cls-7" d="M594,491.87l-.73-232.71s-59.91-44.28-157.69-24.26S307.65,232,265.73,221.68s-65.52-.53-103.53,7.35-65.93-2.09-65.93-2.09L83.38,491.87Z" transform="translate(0 -163.59)"/></g></g></g></g></svg>