<svg xmlns="http://www.w3.org/2000/svg" viewBox="0 0 147.97 51.8"><defs><style>.cls-1{font-size:14.71px;font-family:SegoeUI-Semibold, SegoeUI Semibold;font-weight:600;}.cls-1,.cls-3{fill:#fff;}.cls-2{letter-spacing:-0.02em;}.cls-4{fill:none;stroke:#fff;stroke-miterlimit:10;stroke-width:0.7px;}</style></defs><title>logo_code_prism</title><g id="Layer_2" data-name="Layer 2"><g id="Block_1" data-name="Block 1"><text class="cls-1" transform="translate(70.31 30.13) scale(1.01 1)"><tspan class="cls-2">C</tspan><tspan x="8.22" y="0">ODE PRISM</tspan></text><g id="Prism"><path class="cls-3" d="M33.59,5.52l10.9,18.87L55.38,43.27H11.79l10.9-18.88L33.59,5.52m0-1a.38.38,0,0,0-.35.2L22.08,24,10.92,43.37a.4.4,0,0,0,.35.6H55.9a.4.4,0,0,0,.35-.6L45.09,24,33.94,4.72a.4.4,0,0,0-.35-.2Z"/><path class="cls-3" d="M56.25,43.37h0L33.94,23.89V4.72a.4.4,0,0,0-.7,0V23.89L10.92,43.37a.4.4,0,0,0,.35.6h0L33.58,24.5,55.9,44h0A.4.4,0,0,0,56.25,43.37Z"/></g><path class="cls-4" d="M13.91,51.41C10.1,51.41,7,48.59,7,45.15V31.08A.17.17,0,0,0,7,31C6.81,30.55,5,25.81,0,25.81c0,0,7-.58,7-6.23v-13C7,3.17,10.1.35,13.91.35"/><path class="cls-4" d="M53.15,51.44c3.9,0,7.1-2.81,7.1-6.26V31.1a.17.17,0,0,1,0-.07c.17-.46,2-5.2,7.12-5.2,0,0-7.13-.58-7.13-6.24v-13c0-3.45-3.2-6.27-7.1-6.27"/></g></g></svg>